<svg xmlns="http://www.w3.org/2000/svg" width="189" height="42" viewBox="0 0 189 42" fill="none"><path fill-rule="evenodd" clip-rule="evenodd" d="M20.5398 22.4093C16.8811 26.1352 13.7726 29.1804 13.6321 29.1765C13.4916 29.1725 11.5168 27.1736 9.24384 24.7343L5.11091 20.2993L2.56467 22.9254L0.0186725 25.5514L0.00933649 31.0948L0 36.6383H2.45077H4.90154L4.90831 32.0285L4.91485 27.4187L9.30196 31.9603L13.6888 36.5017L18.8093 31.2601C21.6256 28.3771 24.7425 25.1705 25.7359 24.1342L27.542 22.2501V18.9409C27.542 17.1208 27.542 15.4148 27.542 15.4148C27.542 15.4148 24.1985 18.6837 20.5398 22.4093ZM27.4504 26.1036C27.3778 26.1816 22.4071 30.9903 22.4071 30.9903V33.8143V36.6383H24.8578H27.5262V31.2699C27.5262 28.3173 27.5066 26.0265 27.5066 26.0265C27.5066 26.0265 27.5229 26.0256 27.4504 26.1036Z" fill="black"></path><path fill-rule="evenodd" clip-rule="evenodd" d="M20.6601 12.1951C16.9384 15.9535 13.7828 18.9994 13.6476 18.9639C13.5127 18.9285 10.4794 15.8797 6.90708 12.1888C3.33479 8.49798 0.154588 5.4784 0.106039 5.4784C0.0572572 5.4784 0.0175781 9.16739 0.0175781 13.6761V21.8736L1.70795 20.2699C2.51787 19.3876 3.56843 18.2458 4.04272 17.7323L4.90469 16.7986L9.32658 21.3713L13.7482 25.944L20.6524 19.0256L27.5568 12.1074V8.76541V5.36169L20.6601 12.1951Z" fill="#0070BB"></path><path d="M53.7515 32V16.1576L53.6064 17.1407L48.2397 32H47.1438L41.7287 17.1407L41.5998 16.1576V32H39.5208V8.88918H40.6006L47.6112 27.842L47.6756 28.6962L47.7401 27.842L54.7346 8.88918H55.8305V32H53.7515ZM68.0183 32L66.9224 30.3561C66.4711 30.9471 65.907 31.4252 65.2302 31.7905C64.5533 32.145 63.8119 32.3223 63.0061 32.3223H62.5065C61.8404 32.3223 61.2118 32.1988 60.6209 31.9517C60.03 31.6938 59.5142 31.3446 59.0737 30.9041C58.6332 30.4636 58.284 29.9479 58.0262 29.3569C57.779 28.766 57.6555 28.1375 57.6555 27.4713V27.3101C57.6555 26.644 57.779 26.0155 58.0262 25.4245C58.284 24.8336 58.6332 24.3179 59.0737 23.8774C59.5142 23.4369 60.03 23.093 60.6209 22.8459C61.2118 22.5881 61.8404 22.4591 62.5065 22.4591H66.6967V19.9128C66.6967 19.5152 66.6215 19.1445 66.4711 18.8007C66.3207 18.4462 66.1166 18.14 65.8587 17.8821C65.6008 17.6242 65.2946 17.4201 64.9401 17.2697C64.5963 17.1193 64.2256 17.044 63.828 17.044H62.6677C62.2701 17.044 61.8941 17.1193 61.5395 17.2697C61.1957 17.4201 60.8949 17.6242 60.637 17.8821C60.3791 18.14 60.175 18.4462 60.0246 18.8007C59.8742 19.1445 59.799 19.5152 59.799 19.9128V20.5091L57.8167 20.1867V20.0256C57.8167 19.3594 57.9402 18.7309 58.1873 18.14C58.4452 17.549 58.7944 17.0333 59.2349 16.5928C59.6754 16.1523 60.1911 15.8085 60.7821 15.5613C61.373 15.3035 62.0015 15.1746 62.6677 15.1746H63.828C64.4942 15.1746 65.1227 15.3035 65.7137 15.5613C66.3046 15.8085 66.8203 16.1523 67.2608 16.5928C67.7013 17.0333 68.0451 17.549 68.2923 18.14C68.5501 18.7309 68.6791 19.3594 68.6791 20.0256V32H68.0183ZM66.6967 24.0063H62.5065C62.109 24.0063 61.7329 24.0815 61.3784 24.2319C61.0345 24.3823 60.7337 24.5919 60.4758 24.8605C60.218 25.1183 60.0138 25.4245 59.8634 25.7791C59.713 26.1229 59.6378 26.4936 59.6378 26.8911V27.5841C59.6378 27.9817 59.713 28.3577 59.8634 28.7123C60.0138 29.0561 60.218 29.3569 60.4758 29.6148C60.7337 29.8726 61.0345 30.0768 61.3784 30.2272C61.7329 30.3776 62.109 30.4528 62.5065 30.4528H63.828C64.2256 30.4528 64.5963 30.3776 64.9401 30.2272C65.2946 30.0768 65.6008 29.8726 65.8587 29.6148C66.1166 29.3569 66.3207 29.0561 66.4711 28.7123C66.6215 28.3577 66.6967 27.9817 66.6967 27.5841V24.0063ZM81.1892 27.4713C81.1892 28.1375 81.0603 28.766 80.8024 29.3569C80.5553 29.9479 80.2115 30.4636 79.7709 30.9041C79.3304 31.3446 78.8147 31.6938 78.2238 31.9517C77.6328 32.1988 77.0043 32.3223 76.3382 32.3223H75.0166C74.3505 32.3223 73.7219 32.1988 73.131 31.9517C72.5401 31.6938 72.0244 31.3446 71.5838 30.9041C71.1433 30.4636 70.7941 29.9479 70.5363 29.3569C70.2892 28.766 70.1656 28.1375 70.1656 27.4713V20.0256C70.1656 19.3594 70.2892 18.7309 70.5363 18.14C70.7941 17.549 71.1433 17.0333 71.5838 16.5928C72.0244 16.1523 72.5401 15.8085 73.131 15.5613C73.7219 15.3035 74.3505 15.1746 75.0166 15.1746H76.3382C77.0043 15.1746 77.6328 15.3035 78.2238 15.5613C78.8147 15.8085 79.3304 16.1523 79.7709 16.5928C80.2115 17.0333 80.5553 17.549 80.8024 18.14C81.0603 18.7309 81.1892 19.3594 81.1892 20.0256V20.6863L79.2069 21.0087V19.9128C79.2069 19.5152 79.1317 19.1445 78.9812 18.8007C78.8308 18.4462 78.6267 18.14 78.3688 17.8821C78.111 17.6242 77.8048 17.4201 77.4502 17.2697C77.1064 17.1193 76.7357 17.044 76.3382 17.044H75.0166C74.6191 17.044 74.243 17.1193 73.8885 17.2697C73.5447 17.4201 73.2438 17.6242 72.986 17.8821C72.7281 18.14 72.524 18.4462 72.3735 18.8007C72.2231 19.1445 72.1479 19.5152 72.1479 19.9128V27.5841C72.1479 27.9817 72.2231 28.3577 72.3735 28.7123C72.524 29.0561 72.7281 29.3569 72.986 29.6148C73.2438 29.8726 73.5447 30.0768 73.8885 30.2272C74.243 30.3776 74.6191 30.4528 75.0166 30.4528H76.3382C76.7357 30.4528 77.1064 30.3776 77.4502 30.2272C77.8048 30.0768 78.111 29.8726 78.3688 29.6148C78.6267 29.3569 78.8308 29.0561 78.9812 28.7123C79.1317 28.3577 79.2069 27.9817 79.2069 27.5841V26.4882L81.1892 26.8105V27.4713ZM91.717 32V19.9128C91.717 19.5152 91.6418 19.1445 91.4914 18.8007C91.341 18.4462 91.1368 18.14 90.8789 17.8821C90.6211 17.6242 90.3149 17.4201 89.9603 17.2697C89.6165 17.1193 89.2458 17.044 88.8483 17.044H87.5268C87.1292 17.044 86.7532 17.1193 86.3986 17.2697C86.0548 17.4201 85.754 17.6242 85.4961 17.8821C85.2382 18.14 85.0341 18.4462 84.8837 18.8007C84.7333 19.1445 84.658 19.5152 84.658 19.9128V32H82.6757V8.88918H84.658V16.8829C85.1093 16.3457 85.6519 15.9266 86.2858 15.6258C86.9197 15.325 87.6073 15.1746 88.3487 15.1746H88.8483C89.5144 15.1746 90.143 15.3035 90.7339 15.5613C91.3248 15.8085 91.8406 16.1523 92.2811 16.5928C92.7216 17.0333 93.0654 17.549 93.3125 18.14C93.5704 18.7309 93.6993 19.3594 93.6993 20.0256V32H91.717ZM95.6855 11.5323V8.88918H97.9901V11.5323H95.6855ZM95.8466 32V15.4969H97.8289V32H95.8466ZM109.034 32V19.9128C109.034 19.5152 108.958 19.1445 108.808 18.8007C108.658 18.4462 108.453 18.14 108.196 17.8821C107.938 17.6242 107.632 17.4201 107.277 17.2697C106.933 17.1193 106.562 17.044 106.165 17.044H104.843C104.446 17.044 104.07 17.1193 103.715 17.2697C103.371 17.4201 103.071 17.6242 102.813 17.8821C102.555 18.14 102.351 18.4462 102.2 18.8007C102.05 19.1445 101.975 19.5152 101.975 19.9128V32H99.9924V15.4969H100.653L101.733 17.173C102.184 16.5606 102.748 16.0771 103.425 15.7225C104.113 15.3572 104.86 15.1746 105.665 15.1746H106.165C106.831 15.1746 107.46 15.3035 108.051 15.5613C108.641 15.8085 109.157 16.1523 109.598 16.5928C110.038 17.0333 110.382 17.549 110.629 18.14C110.887 18.7309 111.016 19.3594 111.016 20.0256V32H109.034ZM123.526 27.4713C123.526 28.1375 123.397 28.766 123.139 29.3569C122.892 29.9479 122.548 30.4636 122.108 30.9041C121.667 31.3446 121.152 31.6938 120.561 31.9517C119.97 32.1988 119.341 32.3223 118.675 32.3223H117.354C116.687 32.3223 116.059 32.1988 115.468 31.9517C114.877 31.6938 114.361 31.3446 113.921 30.9041C113.48 30.4636 113.131 29.9479 112.873 29.3569C112.626 28.766 112.503 28.1375 112.503 27.4713V20.0256C112.503 19.3594 112.626 18.7309 112.873 18.14C113.131 17.549 113.48 17.0333 113.921 16.5928C114.361 16.1523 114.877 15.8085 115.468 15.5613C116.059 15.3035 116.687 15.1746 117.354 15.1746H118.675C119.341 15.1746 119.97 15.3035 120.561 15.5613C121.152 15.8085 121.667 16.1523 122.108 16.5928C122.548 17.0333 122.892 17.549 123.139 18.14C123.397 18.7309 123.526 19.3594 123.526 20.0256V23.9096H114.485V27.5841C114.485 27.9817 114.56 28.3577 114.71 28.7123C114.861 29.0561 115.065 29.3569 115.323 29.6148C115.581 29.8726 115.882 30.0768 116.225 30.2272C116.58 30.3776 116.956 30.4528 117.354 30.4528H118.675C119.073 30.4528 119.443 30.3776 119.787 30.2272C120.142 30.0768 120.448 29.8726 120.706 29.6148C120.964 29.3569 121.168 29.0561 121.318 28.7123C121.469 28.3577 121.544 27.9817 121.544 27.5841V26.4882L123.526 26.8105V27.4713ZM121.544 19.9128C121.544 19.5152 121.469 19.1445 121.318 18.8007C121.168 18.4462 120.964 18.14 120.706 17.8821C120.448 17.6242 120.142 17.4201 119.787 17.2697C119.443 17.1193 119.073 17.044 118.675 17.044H117.354C116.956 17.044 116.58 17.1193 116.225 17.2697C115.882 17.4201 115.581 17.6242 115.323 17.8821C115.065 18.14 114.861 18.4462 114.71 18.8007C114.56 19.1445 114.485 19.5152 114.485 19.9128V22.3624H121.544V19.9128ZM147.663 32V16.1576L147.518 17.1407L142.151 32H141.055L135.64 17.1407L135.511 16.1576V32H133.432V8.88918H134.512L141.523 27.842L141.587 28.6962L141.652 27.842L148.646 8.88918H149.742V32H147.663ZM161.93 32L160.834 30.3561C160.383 30.9471 159.818 31.4252 159.142 31.7905C158.465 32.145 157.723 32.3223 156.918 32.3223H156.418C155.752 32.3223 155.123 32.1988 154.532 31.9517C153.941 31.6938 153.426 31.3446 152.985 30.9041C152.545 30.4636 152.195 29.9479 151.938 29.3569C151.69 28.766 151.567 28.1375 151.567 27.4713V27.3101C151.567 26.644 151.69 26.0155 151.938 25.4245C152.195 24.8336 152.545 24.3179 152.985 23.8774C153.426 23.4369 153.941 23.093 154.532 22.8459C155.123 22.5881 155.752 22.4591 156.418 22.4591H160.608V19.9128C160.608 19.5152 160.533 19.1445 160.383 18.8007C160.232 18.4462 160.028 18.14 159.77 17.8821C159.512 17.6242 159.206 17.4201 158.852 17.2697C158.508 17.1193 158.137 17.044 157.739 17.044H156.579C156.182 17.044 155.806 17.1193 155.451 17.2697C155.107 17.4201 154.806 17.6242 154.548 17.8821C154.291 18.14 154.086 18.4462 153.936 18.8007C153.786 19.1445 153.71 19.5152 153.71 19.9128V20.5091L151.728 20.1867V20.0256C151.728 19.3594 151.852 18.7309 152.099 18.14C152.357 17.549 152.706 17.0333 153.146 16.5928C153.587 16.1523 154.103 15.8085 154.693 15.5613C155.284 15.3035 155.913 15.1746 156.579 15.1746H157.739C158.406 15.1746 159.034 15.3035 159.625 15.5613C160.216 15.8085 160.732 16.1523 161.172 16.5928C161.613 17.0333 161.957 17.549 162.204 18.14C162.462 18.7309 162.59 19.3594 162.59 20.0256V32H161.93ZM160.608 24.0063H156.418C156.02 24.0063 155.644 24.0815 155.29 24.2319C154.946 24.3823 154.645 24.5919 154.387 24.8605C154.129 25.1183 153.925 25.4245 153.775 25.7791C153.624 26.1229 153.549 26.4936 153.549 26.8911V27.5841C153.549 27.9817 153.624 28.3577 153.775 28.7123C153.925 29.0561 154.129 29.3569 154.387 29.6148C154.645 29.8726 154.946 30.0768 155.29 30.2272C155.644 30.3776 156.02 30.4528 156.418 30.4528H157.739C158.137 30.4528 158.508 30.3776 158.852 30.2272C159.206 30.0768 159.512 29.8726 159.77 29.6148C160.028 29.3569 160.232 29.0561 160.383 28.7123C160.533 28.3577 160.608 27.9817 160.608 27.5841V24.0063ZM163.416 32V31.1136L171.732 17.3825H163.739V15.4969H174.44V16.3833L166.124 30.1144H174.44V32H163.416ZM186.289 27.4713C186.289 28.1375 186.16 28.766 185.902 29.3569C185.655 29.9479 185.311 30.4636 184.871 30.9041C184.43 31.3446 183.915 31.6938 183.324 31.9517C182.733 32.1988 182.104 32.3223 181.438 32.3223H180.117C179.451 32.3223 178.822 32.1988 178.231 31.9517C177.64 31.6938 177.124 31.3446 176.684 30.9041C176.243 30.4636 175.894 29.9479 175.636 29.3569C175.389 28.766 175.266 28.1375 175.266 27.4713V20.0256C175.266 19.3594 175.389 18.7309 175.636 18.14C175.894 17.549 176.243 17.0333 176.684 16.5928C177.124 16.1523 177.64 15.8085 178.231 15.5613C178.822 15.3035 179.451 15.1746 180.117 15.1746H181.438C182.104 15.1746 182.733 15.3035 183.324 15.5613C183.915 15.8085 184.43 16.1523 184.871 16.5928C185.311 17.0333 185.655 17.549 185.902 18.14C186.16 18.7309 186.289 19.3594 186.289 20.0256V23.9096H177.248V27.5841C177.248 27.9817 177.323 28.3577 177.474 28.7123C177.624 29.0561 177.828 29.3569 178.086 29.6148C178.344 29.8726 178.645 30.0768 178.989 30.2272C179.343 30.3776 179.719 30.4528 180.117 30.4528H181.438C181.836 30.4528 182.206 30.3776 182.55 30.2272C182.905 30.0768 183.211 29.8726 183.469 29.6148C183.727 29.3569 183.931 29.0561 184.081 28.7123C184.232 28.3577 184.307 27.9817 184.307 27.5841V26.4882L186.289 26.8105V27.4713ZM184.307 19.9128C184.307 19.5152 184.232 19.1445 184.081 18.8007C183.931 18.4462 183.727 18.14 183.469 17.8821C183.211 17.6242 182.905 17.4201 182.55 17.2697C182.206 17.1193 181.836 17.044 181.438 17.044H180.117C179.719 17.044 179.343 17.1193 178.989 17.2697C178.645 17.4201 178.344 17.6242 178.086 17.8821C177.828 18.14 177.624 18.4462 177.474 18.8007C177.323 19.1445 177.248 19.5152 177.248 19.9128V22.3624H184.307V19.9128Z" fill="black"></path></svg>